<?xml version="1.0" standalone="no"?>
<!DOCTYPE svg PUBLIC "-//W3C//DTD SVG 20010904//EN"
 "http://www.w3.org/TR/2001/REC-SVG-20010904/DTD/svg10.dtd">
<svg version="1.0" xmlns="http://www.w3.org/2000/svg"
 width="43.000000pt" height="33.000000pt" viewBox="0 0 43.000000 33.000000"
 preserveAspectRatio="xMidYMid meet">

<g transform="translate(0.000000,33.000000) scale(0.100000,-0.100000)"
fill="#000000" stroke="none">
<path d="M169 320 c-32 -19 -36 -120 -4 -120 13 0 25 -22 25 -43 -1 -7 -7 -1
-15 13 -13 24 -14 24 -15 4 0 -12 6 -26 13 -32 35 -28 88 -9 86 32 0 21 0 21
-9 -1 -6 -15 -18 -23 -32 -23 -22 1 -22 1 -3 12 11 6 24 17 28 25 4 7 14 13
21 13 23 0 20 86 -4 110 -21 21 -64 26 -91 10z m29 -82 c-6 -18 -28 -21 -28
-4 0 9 7 16 16 16 9 0 14 -5 12 -12z m59 0 c-2 -7 -12 -12 -21 -12 -9 1 -16
-4 -16 -12 0 -8 -4 -14 -10 -14 -13 0 -13 6 2 30 14 22 53 28 45 8z"/>
<path d="M0 271 c0 -26 32 -71 85 -120 31 -28 61 -51 66 -51 5 0 9 -4 9 -9 0
-16 -34 -18 -52 -3 -9 8 -22 11 -29 6 -9 -5 -7 -11 6 -21 17 -12 15 -13 -18
-13 -36 0 -51 -20 -27 -35 6 -3 10 -2 10 3 0 5 16 8 35 8 20 -1 35 -6 35 -13
0 -18 20 -27 33 -14 8 8 6 11 -6 11 -9 0 -17 8 -17 17 0 9 3 14 6 10 4 -3 22
0 40 8 29 12 40 12 73 0 22 -7 42 -11 45 -8 3 4 6 1 6 -6 0 -6 -7 -14 -15 -17
-20 -8 -19 -24 0 -24 9 0 19 8 23 18 4 11 19 18 39 18 20 1 30 -2 27 -8 -4 -6
-1 -9 7 -6 8 3 15 12 17 21 3 14 -5 17 -40 18 -24 1 -35 3 -25 6 9 2 17 11 17
19 0 18 -9 18 -29 1 -10 -9 -26 -11 -41 -7 l-25 6 24 13 c37 20 121 102 137
133 25 48 15 53 -18 9 -18 -23 -66 -65 -107 -92 l-73 -49 -47 26 c-62 36 -99
68 -138 116 -18 23 -33 35 -33 29z"/>
</g>
</svg>
